<!-- by TradingView --><svg width="56" height="56" viewBox="0 0 56 56" xmlns="http://www.w3.org/2000/svg"><path fill="url(#a)" d="M0 0h56v56H0z"/><circle cx="28" cy="28" r="16" fill="url(#b)"/><path d="M27 22h2v-2h2v2c1.17 0 3.5.6 3.5 3s-1.67 3-2.5 3c1 .17 3 1.1 3 3.5 0 3-1.5 4.5-4 4.5v2h-2v-2h-2v2h-2v-2h-3V22h3v-2h2v2Zm-2 12h5c1 0 2-.5 2-2.5 0-1.5-.4-2.5-2-2.5h-5v5Zm0-7h5c.5 0 1.5-.5 1.5-1.5 0-.33-.3-1.5-1.5-1.5h-5v3Z" fill="#fff"/><defs><linearGradient id="a" x1="10.42" y1="9.71" x2="68.15" y2="76.02" gradientUnits="userSpaceOnUse"><stop stop-color="#1A1E21"/><stop offset="1" stop-color="#06060A"/></linearGradient><linearGradient id="b" x1="16" y1="22" x2="35" y2="40" gradientUnits="userSpaceOnUse"><stop stop-color="#F16D38"/><stop offset="1" stop-color="#F6C9BA"/></linearGradient></defs></svg>