<svg width="100" height="100" viewBox="0 0 100 100" fill="none" xmlns="http://www.w3.org/2000/svg">
<g clip-path="url(#clip0_20_5)">
<path d="M50 100C77.6142 100 100 77.6142 100 50C100 22.3858 77.6142 0 50 0C22.3858 0 0 22.3858 0 50C0 77.6142 22.3858 100 50 100Z" fill="#FF812E"/>
<path d="M50 21.8021C54.7159 27.7774 61.4908 38.318 61.4908 50C61.4908 61.682 54.7159 72.2897 50 78.265C45.2841 72.3569 38.5092 61.8163 38.5092 50C38.5092 38.1837 45.2841 27.7102 50 21.8021ZM50 12C50 12 32 29.053 32 50C32 70.947 50 88 50 88C50 88 68 70.947 68 50C68 29.053 50 12 50 12Z" fill="white"/>
</g>
<defs>
<clipPath id="clip0_20_5">
<rect width="100" height="100" fill="white"/>
</clipPath>
</defs>
</svg>
